<?xml version="1.0" encoding="UTF-8" standalone="no"?>
<svg
   version="1.0"
   width="363.70514pt"
   height="504.12598pt"
   viewBox="0 0 363.70514 504.12598"
   preserveAspectRatio="xMidYMid meet"
   id="svg35"
   sodipodi:docname="dormitory-icon.svg"
   inkscape:version="1.1.1 (3bf5ae0d25, 2021-09-20)"
   xmlns:inkscape="http://www.inkscape.org/namespaces/inkscape"
   xmlns:sodipodi="http://sodipodi.sourceforge.net/DTD/sodipodi-0.dtd"
   xmlns="http://www.w3.org/2000/svg"
   xmlns:svg="http://www.w3.org/2000/svg">
  <defs
     id="defs39" />
  <sodipodi:namedview
     id="namedview37"
     pagecolor="#ffffff"
     bordercolor="#666666"
     borderopacity="1.0"
     inkscape:pageshadow="2"
     inkscape:pageopacity="0.0"
     inkscape:pagecheckerboard="0"
     inkscape:document-units="pt"
     showgrid="false"
     fit-margin-top="0"
     fit-margin-left="0"
     fit-margin-right="0"
     fit-margin-bottom="0"
     inkscape:zoom="0.83796297"
     inkscape:cx="236.88398"
     inkscape:cy="314.45304"
     inkscape:window-width="1920"
     inkscape:window-height="1017"
     inkscape:window-x="-8"
     inkscape:window-y="-8"
     inkscape:window-maximized="1"
     inkscape:current-layer="layer2" />
  <g
     inkscape:groupmode="layer"
     id="layer2"
     inkscape:label="Background">
    <path
       style="fill:#8dd35f;stroke:#280b0b;stroke-width:0.895027"
       d="M 172.38531,495.64891 C 152.09763,474.5407 89.960423,383.59223 58.550757,329.03247 14.997458,253.37877 -1.0734647,206.89221 2.3718206,166.52993 8.0905365,99.533903 50.268915,42.103349 113.76249,14.859154 137.36111,4.7333195 148.22574,2.7949017 181.38136,2.7949017 c 29.50326,0 35.70077,0.8132596 55.49171,7.2818303 28.88596,9.441234 53.16044,24.599715 73.87038,46.129212 22.33681,23.220759 37.01633,49.674566 46.29298,83.424046 1.87499,6.82144 4.10822,9.81542 4.11347,37.13028 l -2.10615,28.31087 -3.01011,10.29282 c -16.55839,56.62013 -59.24985,133.6435 -127.98957,230.91713 -26.12378,36.96777 -35.44224,48.8637 -41.54036,53.03038 -5.59571,3.8234 -7.36521,3.36437 -14.119,-3.66256 z m 39.40987,-174.21086 c 17.41248,-3.94147 32.87988,-10.53153 47.51091,-20.24257 11.50408,-7.6356 33.24351,-29.38769 40.99896,-41.02281 10.81098,-16.21923 19.48071,-37.93278 21.64779,-54.21737 1.53017,-11.49854 -0.14431,-49.96811 -2.10817,-57.21496 -2.18436,-8.06047 -6.63574,-21.38673 -11.39869,-30.9387 C 291.83162,84.48192 261.66682,58.81421 223.97969,45.927923 l -10.82485,-3.701324 -26.85083,-0.341362 c -18.64089,-0.236986 -28.76649,-0.0055 -33.11602,0.756795 -14.39606,2.523324 -34.39583,10.858638 -48.70219,20.297636 -11.038005,7.282618 -32.75962,29.241865 -40.588005,41.032042 -10.588657,15.94737 -17.565411,33.01479 -21.204877,51.87407 -2.107498,10.92082 -2.520466,34.57841 -0.843659,48.33033 1.47764,12.11849 6.287386,26.98146 13.323275,41.17128 19.468734,39.26408 55.008276,66.94745 98.273636,76.54983 6.82791,1.51539 10.52267,1.6886 29.72524,1.39347 16.36517,-0.25153 23.62679,-0.72153 28.62377,-1.85264 z"
       id="path2337"
       sodipodi:nodetypes="csssssssccsssccssssssscscssssssss" />
    <ellipse
       style="fill:#c6e9af;stroke-width:0.94036"
       id="path3283"
       cx="181.77867"
       cy="181.72298"
       rx="142.35243"
       ry="143.09526" />
  </g>
  <g
     inkscape:groupmode="layer"
     id="layer3"
     inkscape:label="Front icon">
    <path
       style="fill:#000000;stroke-width:0.388741"
       d="m 95.139298,218.69116 c 0,-63.36603 -0.190317,-58.93907 2.669342,-62.09037 4.09325,-4.51072 11.00798,-3.38781 13.75319,2.23342 0.79158,1.62087 0.79848,1.85443 0.98233,33.25882 l 0.18516,31.62649 69.89725,0.10305 69.89722,0.10305 v -18.55357 c 0,-17.54685 0.0401,-18.67177 0.73974,-20.7323 3.07875,-9.0679 14.77336,-7.80283 16.64226,1.80029 0.26343,1.3536 0.3932,16.35659 0.3932,45.46118 v 43.44082 h -8.8876 -8.8876 v -14.28293 -14.28292 h -69.6195 -69.61949 v 14.28292 14.28293 h -9.07276 -9.072742 z m 25.879582,0.58855 c -2.10801,-0.83013 -3.53295,-2.15337 -4.36945,-4.05759 -1.41261,-3.21569 -0.86843,-6.6483 1.44801,-9.13385 2.28658,-2.4535 3.10306,-2.5689 18.17724,-2.5689 h 13.60003 l 0.14387,-9.07986 c 0.15358,-9.69409 0.38639,-11.06544 2.25971,-13.31098 1.91024,-2.28984 5.60632,-3.12072 8.32128,-1.87066 1.7553,0.80821 2.91692,2.01249 3.91752,4.06137 0.77332,1.5835 0.79717,2.06665 0.79717,16.15102 v 14.51868 l -1.11094,1.97702 c -0.72977,1.29868 -1.67095,2.30293 -2.74305,2.92689 l -1.63208,0.94988 -18.73532,-0.0179 c -14.3399,-0.0137 -19.04938,-0.14159 -20.07399,-0.54509 z m 46.70244,-19.84117 v -20.40418 l 34.16169,0.005 c 27.31522,0.003 34.53277,0.11411 36.01328,0.54988 5.55185,1.63428 9.13524,5.82862 10.15057,11.88116 0.23687,1.41201 0.40345,7.76588 0.40345,15.38876 v 12.98371 H 208.0858 167.72132 Z m -37.21681,1.60376 c -4.5758,-0.5789 -8.48969,-3.0309 -11.11797,-6.96529 -6.55452,-9.81173 -2.41421,-23.24719 8.28703,-26.89171 8.52439,-2.90316 17.40221,2.2721 20.22854,11.7921 1.02398,3.44907 0.67534,8.4701 -0.8351,12.027 -2.92718,6.8932 -9.57458,10.92193 -16.5625,10.0379 z M 81.775893,123.95438 c -2.725001,-0.89083 -3.807075,-2.54518 -4.460933,-6.82016 -0.360416,-2.35643 -0.33599,-3.01345 0.159924,-4.3025 1.065706,-2.77017 0.353144,-2.51746 23.346966,-8.27961 5.06031,-1.26808 9.64297,-2.38967 10.1837,-2.49242 0.54073,-0.1027 4.98255,-1.18537 9.87073,-2.405834 4.88817,-1.220441 13.72023,-3.416781 19.62678,-4.880717 5.90655,-1.463923 14.7386,-3.656836 19.62678,-4.873117 22.03753,-5.4834 21.17795,-5.36866 27.53648,-3.67589 2.16723,0.576961 7.02329,1.77924 10.79127,2.67173 3.76797,0.89249 7.81049,1.894981 8.98338,2.22774 1.1729,0.332771 5.83888,1.511605 10.36887,2.619644 12.16432,2.97538 26.67237,6.555294 27.30762,6.738234 0.47936,0.13804 16.61076,4.11989 18.1455,4.479 0.30552,0.0715 1.55534,0.4103 2.77738,0.75294 1.22205,0.34264 5.47143,1.37962 9.44307,2.30441 8.25419,1.92199 9.06093,2.20147 10.46735,3.62633 1.4593,1.47846 1.82075,3.38703 1.22635,6.47553 -0.57658,2.99586 -1.30257,4.34726 -2.91881,5.43324 -1.47815,0.9932 -2.59096,0.98732 -6.55299,-0.0347 -1.73123,-0.44657 -6.89715,-1.7327 -11.47981,-2.85807 -4.58268,-1.12537 -9.99855,-2.48949 -12.03529,-3.0314 -2.03674,-0.5419 -6.86937,-1.74264 -10.73918,-2.6683 -3.8698,-0.92568 -7.28597,-1.76009 -7.59148,-1.85425 -0.54907,-0.16922 -9.42017,-2.37233 -27.77375,-6.8975 -5.19368,-1.28053 -9.69303,-2.39788 -9.99854,-2.483 -0.3055,-0.0851 -3.9442,-0.9945 -8.08597,-2.02086 -8.71116,-2.158681 -6.7542,-2.27559 -20.61355,1.23141 -4.68451,1.18537 -9.51713,2.3732 -10.73917,2.63961 -1.22205,0.2664 -5.38811,1.30689 -9.25791,2.3122 -3.86982,1.0053 -7.86923,1.99685 -8.8876,2.20345 -1.72431,0.34981 -4.90285,1.13959 -28.51437,7.08508 -4.88818,1.23087 -9.42879,2.34121 -10.09025,2.46743 -1.39086,0.26539 -4.074359,0.93203 -11.573256,2.87504 -6.569197,1.70212 -7.338196,1.83122 -8.549291,1.43531 z"
       id="path6631" />
  </g>
</svg>
