<?xml version="1.0" encoding="UTF-8" standalone="no"?>
<svg
   version="1.0"
   width="363.70514pt"
   height="504.12598pt"
   viewBox="0 0 363.70514 504.12598"
   preserveAspectRatio="xMidYMid meet"
   id="svg35"
   sodipodi:docname="library-icon.svg"
   inkscape:version="1.1.1 (3bf5ae0d25, 2021-09-20)"
   xmlns:inkscape="http://www.inkscape.org/namespaces/inkscape"
   xmlns:sodipodi="http://sodipodi.sourceforge.net/DTD/sodipodi-0.dtd"
   xmlns="http://www.w3.org/2000/svg"
   xmlns:svg="http://www.w3.org/2000/svg">
  <defs
     id="defs39" />
  <sodipodi:namedview
     id="namedview37"
     pagecolor="#ffffff"
     bordercolor="#666666"
     borderopacity="1.0"
     inkscape:pageshadow="2"
     inkscape:pageopacity="0.0"
     inkscape:pagecheckerboard="0"
     inkscape:document-units="pt"
     showgrid="false"
     fit-margin-top="0"
     fit-margin-left="0"
     fit-margin-right="0"
     fit-margin-bottom="0"
     inkscape:zoom="0.83796297"
     inkscape:cx="-117.54696"
     inkscape:cy="321.61326"
     inkscape:window-width="1920"
     inkscape:window-height="1017"
     inkscape:window-x="-8"
     inkscape:window-y="-8"
     inkscape:window-maximized="1"
     inkscape:current-layer="layer2" />
  <path
     style="fill:#ffb380;stroke-width:1.19337;stroke:#333333"
     d="M 236.21707,670.18416 C 228.93885,667.0143 184.65391,607.1751 139.18345,539.06929 49.709137,405.05434 3.7567133,307.57019 0.95729553,245.83425 -0.06780395,223.2276 5.5281655,189.02483 14.504306,163.03444 45.745338,72.57609 133.03099,5.8012969 225.93305,1.2883551 251.33531,0.05437961 276.03595,1.522671 293.42852,5.3005194 377.3156,23.521672 444.65662,83.068165 471.89711,163.11187 c 9.5057,27.9317 12.63338,50.10122 11.7037,82.95804 -0.5076,17.93972 -1.06404,22.52684 -4.24186,34.96876 -14.64789,57.34998 -50.12252,129.08732 -110.93328,224.33092 -32.31028,50.60531 -91.50232,134.77606 -110.93686,157.75159 -7.08319,8.37374 -13.42628,10.47989 -21.27174,7.06298 z m 26.92105,-239.41848 c 42.026,-3.7173 80.91588,-22.40831 112.84279,-54.2338 27.52371,-27.43626 44.98205,-59.91999 52.62875,-97.92324 3.05381,-15.17709 3.09541,-57.83069 0.0698,-71.55892 -8.50352,-38.58337 -24.84301,-69.36084 -50.85952,-95.80028 C 352.83195,85.855262 323.7221,69.124545 288.79558,60.083241 275.9721,56.763672 274.93713,56.685083 244.0442,56.685083 c -34.99867,0 -39.35632,0.59916 -62.65194,8.614374 C 113.48673,88.663409 62.54661,154.32997 56.619135,226.14365 c -3.072549,37.22511 3.094355,70.04086 19.242358,102.39373 17.731408,35.52527 49.327797,66.87869 84.646797,83.99586 32.91297,15.9511 64.65972,21.59099 102.62983,18.23244 z"
     id="path261"
     transform="scale(0.75)" />
  <g
     inkscape:groupmode="layer"
     id="layer2"
     inkscape:label="Background">
    <path
       style="fill:#ff9955;stroke-width:0.895027"
       d="M 172.06887,495.64891 C 151.78119,474.5407 89.643983,383.59223 58.234317,329.03247 14.681018,253.37877 -1.3899047,206.89221 2.0553806,166.52993 7.7740965,99.533903 49.952475,42.103349 113.44605,14.859154 137.04467,4.7333195 147.9093,2.7949017 181.06492,2.7949017 c 29.50326,0 35.70077,0.8132596 55.49171,7.2818303 28.88596,9.441234 53.16044,24.599715 73.87038,46.129212 22.33681,23.220759 37.01633,49.674566 46.29298,83.424046 1.87499,6.82144 4.10822,9.81542 4.11347,37.13028 l -2.10615,28.31087 -3.01011,10.29282 c -16.55839,56.62013 -59.24985,133.6435 -127.98957,230.91713 -26.12378,36.96777 -35.44224,48.8637 -41.54036,53.03038 -5.59571,3.8234 -7.36521,3.36437 -14.119,-3.66256 z m 39.40987,-174.21086 c 17.41248,-3.94147 32.87988,-10.53153 47.51091,-20.24257 11.50408,-7.6356 33.24351,-29.38769 40.99896,-41.02281 10.81098,-16.21923 19.48071,-37.93278 21.64779,-54.21737 1.53017,-11.49854 0.63884,-50.02405 -1.32502,-57.2709 -2.18436,-8.06047 -7.41889,-21.33079 -12.18184,-30.88276 C 291.51518,84.48192 261.35038,58.81421 223.66325,45.927923 L 212.8384,42.226599 185.98757,41.885237 c -18.64089,-0.236986 -28.76649,-0.0055 -33.11602,0.756795 -14.39606,2.523324 -34.39583,10.858638 -48.70219,20.297636 -11.038005,7.282618 -32.75962,29.241865 -40.588005,41.032042 -10.588657,15.94737 -17.565411,33.01479 -21.204877,51.87407 -2.107498,10.92082 -2.520466,34.57841 -0.843659,48.33033 1.47764,12.11849 6.287386,26.98146 13.323275,41.17128 19.468734,39.26408 55.008276,66.94745 98.273636,76.54983 6.82791,1.51539 10.52267,1.6886 29.72524,1.39347 16.36517,-0.25153 23.62679,-0.72153 28.62377,-1.85264 z"
       id="path2337"
       sodipodi:nodetypes="csssssssccsssccssssssscscssssssss" />
    <ellipse
       style="fill:#ffccaa;stroke-width:0.94036"
       id="path3283"
       cx="181.77867"
       cy="181.72298"
       rx="142.35243"
       ry="143.09526" />
  </g>
  <g
     inkscape:groupmode="layer"
     id="layer3"
     inkscape:label="Front icon">
    <path
       style="fill:#000000;stroke-width:0.938165"
       d="M 129.0322,247.36933 88.948195,234.98673 88.696311,179.4702 c -0.138527,-30.53409 -0.03311,-55.51654 0.23413,-55.51654 0.267305,0 3.350279,1.05588 6.851079,2.34639 l 6.36507,2.34642 v 47.01499 47.01499 l 8.06568,1.56745 c 18.17412,3.5319 39.39459,11.33172 53.15693,19.53845 5.699,3.3984 6.18945,3.5255 10.26543,2.66017 5.60527,-1.19 12.29871,-1.18447 18.37334,0.0153 4.7804,0.94405 5.72219,0.72747 38.1681,-8.77761 l 33.26676,-9.74558 0.009,-49.64404 0.009,-49.64403 6.36507,-2.34642 c 3.50078,-1.29052 6.58377,-2.3464 6.85106,-2.3464 0.26731,0 0.37266,24.98186 0.23413,55.51523 l -0.25187,55.5152 -40.56395,12.45497 -40.56395,12.45499 -13.20726,-0.0711 -13.20727,-0.0711 z m 38.24637,-5.66616 c -5.64961,-14.65268 -20.10251,-26.08576 -37.84377,-29.93659 -3.44771,-0.74836 -7.92209,-1.36662 -9.94307,-1.37394 l -3.67449,-0.0133 0.25269,-49.73977 0.25271,-49.73977 4.60288,-0.81903 c 13.58613,-2.41751 31.98609,8.71647 44.18186,26.73484 l 4.51378,6.66879 -0.2525,51.49236 -0.25248,51.49238 z m 9.20029,-52.09813 0.0302,-52.5975 4.24685,-2.94449 c 17.98367,-12.46876 41.94921,-21.37114 60.46258,-22.45983 l 8.55451,-0.50304 v 50.79122 50.79124 l -8.06568,1.15355 c -10.18544,1.45673 -25.51816,6.1319 -36.07689,11.00036 -8.7049,4.0137 -23.34707,12.42716 -26.98208,15.50403 l -2.19973,1.86197 0.0302,-52.59751 z"
       id="path2598" />
  </g>
</svg>
