<?xml version="1.0" encoding="UTF-8" standalone="no"?>
<svg
   version="1.0"
   width="363.70514pt"
   height="504.12598pt"
   viewBox="0 0 363.70514 504.12598"
   preserveAspectRatio="xMidYMid meet"
   id="svg35"
   sodipodi:docname="university-icon.svg"
   inkscape:version="1.1.1 (3bf5ae0d25, 2021-09-20)"
   xmlns:inkscape="http://www.inkscape.org/namespaces/inkscape"
   xmlns:sodipodi="http://sodipodi.sourceforge.net/DTD/sodipodi-0.dtd"
   xmlns="http://www.w3.org/2000/svg"
   xmlns:svg="http://www.w3.org/2000/svg">
  <defs
     id="defs39" />
  <sodipodi:namedview
     id="namedview37"
     pagecolor="#ffffff"
     bordercolor="#666666"
     borderopacity="1.0"
     inkscape:pageshadow="2"
     inkscape:pageopacity="0.0"
     inkscape:pagecheckerboard="0"
     inkscape:document-units="pt"
     showgrid="false"
     fit-margin-top="0"
     fit-margin-left="0"
     fit-margin-right="0"
     fit-margin-bottom="0"
     inkscape:zoom="0.83796297"
     inkscape:cx="310.87293"
     inkscape:cy="287.00552"
     inkscape:window-width="1920"
     inkscape:window-height="1017"
     inkscape:window-x="-8"
     inkscape:window-y="-8"
     inkscape:window-maximized="1"
     inkscape:current-layer="svg35" />
  <g
     transform="matrix(0.1,0,0,-0.1,-73.217352,507.87599)"
     fill="#000000"
     stroke="none"
     id="g33">
    <path
       d="M 2287,5064 C 1611,4959 1043,4482 830,3841 760,3633 721,3369 735,3200 771,2738 1107,2031 1755,1055 2035,633 2436,83 2484,54 c 38,-22 107,-22 141,0 45,30 415,539 695,956 586,875 931,1555 1026,2020 24,114 26,140 21,305 -5,209 -27,334 -88,518 -191,572 -669,1017 -1255,1171 -55,14 -145,33 -200,41 -123,19 -415,18 -537,-1 z m 599,-437 c 276,-70 498,-199 690,-399 193,-203 315,-441 370,-723 24,-122 24,-366 0,-495 -105,-580 -557,-1035 -1136,-1146 -128,-24 -370,-24 -495,-1 -134,26 -276,74 -392,133 -394,200 -665,565 -750,1009 -23,125 -23,367 1,495 106,552 523,999 1051,1124 131,31 180,35 370,31 163,-3 204,-7 291,-28 z"
       id="path25" />
    <path
       d="m 2045,3884 c -269,-101 -521,-196 -558,-210 -48,-18 -67,-31 -65,-41 2,-11 190,-86 571,-229 l 567,-214 280,107 c 222,84 280,110 280,124 0,10 -8,20 -17,23 -58,18 -706,206 -709,206 -2,0 -4,8 -4,18 0,11 45,49 126,105 69,49 131,90 138,93 15,6 825,-232 843,-248 7,-6 13,-21 13,-34 0,-12 3,-25 8,-27 12,-8 182,64 182,78 0,16 27,5 -603,241 -284,107 -527,194 -540,194 -12,-1 -242,-84 -512,-186 z"
       id="path27" />
    <path
       d="m 2658,3722 c -16,-9 -28,-19 -28,-22 0,-3 152,-50 337,-105 195,-58 345,-107 355,-117 16,-16 18,-41 18,-222 0,-203 0,-204 -27,-257 -27,-51 -28,-60 -31,-222 -2,-116 0,-173 8,-182 9,-11 28,-13 78,-8 99,9 102,11 102,94 0,81 -22,200 -53,279 -18,49 -21,83 -26,309 l -6,254 -170,54 c -93,30 -247,79 -340,109 -94,30 -175,54 -180,54 -6,0 -22,-8 -37,-18 z"
       id="path29" />
    <path
       d="m 1930,2981 c 0,-180 4,-292 10,-296 5,-3 51,7 102,23 153,49 271,65 468,65 186,0 314,-15 498,-59 57,-13 110,-24 118,-24 12,0 14,44 14,269 0,162 -4,272 -10,276 -5,3 -134,-42 -286,-101 l -276,-107 -301,121 c -166,67 -310,122 -319,122 -17,0 -18,-20 -18,-289 z"
       id="path31" />
  </g>
  <path
     style="fill:#ffb380;stroke-width:1.19337"
     d="M 236.21707,670.18416 C 228.93885,667.0143 184.65391,607.1751 139.18345,539.06929 49.709137,405.05434 3.7567133,307.57019 0.95729553,245.83425 -0.06780395,223.2276 5.5281655,189.02483 14.504306,163.03444 45.745338,72.57609 133.03099,5.8012969 225.93305,1.2883551 251.33531,0.05437961 276.03595,1.522671 293.42852,5.3005194 377.3156,23.521672 444.65662,83.068165 471.89711,163.11187 c 9.5057,27.9317 12.63338,50.10122 11.7037,82.95804 -0.5076,17.93972 -1.06404,22.52684 -4.24186,34.96876 -14.64789,57.34998 -50.12252,129.08732 -110.93328,224.33092 -32.31028,50.60531 -91.50232,134.77606 -110.93686,157.75159 -7.08319,8.37374 -13.42628,10.47989 -21.27174,7.06298 z m 26.92105,-239.41848 c 42.026,-3.7173 80.91588,-22.40831 112.84279,-54.2338 27.52371,-27.43626 44.98205,-59.91999 52.62875,-97.92324 3.05381,-15.17709 3.09541,-57.83069 0.0698,-71.55892 -8.50352,-38.58337 -24.84301,-69.36084 -50.85952,-95.80028 C 352.83195,85.855262 323.7221,69.124545 288.79558,60.083241 275.9721,56.763672 274.93713,56.685083 244.0442,56.685083 c -34.99867,0 -39.35632,0.59916 -62.65194,8.614374 C 113.48673,88.663409 62.54661,154.32997 56.619135,226.14365 c -3.072549,37.22511 3.094355,70.04086 19.242358,102.39373 17.731408,35.52527 49.327797,66.87869 84.646797,83.99586 32.91297,15.9511 64.65972,21.59099 102.62983,18.23244 z"
     id="path261"
     transform="scale(0.75)" />
  <path
     style="fill:#ffb380;stroke-width:1.19337"
     d="M 185.01195,229.05544 C 125.83403,206.53728 99.78833,196.36205 94.872928,193.841 c -2.964195,-1.5203 -2.941118,-1.54946 3.58011,-4.52446 7.235482,-3.30085 91.173662,-34.93349 124.053422,-46.75033 l 20.82689,-7.4851 15.5709,5.408 c 15.42549,5.35749 97.97193,36.07709 122.67586,45.65375 7.0558,2.73523 12.82873,5.50058 12.82873,6.14523 0,1.17728 -4.74835,3.51814 -16.43973,8.10449 l -6.29607,2.46986 -0.73113,-3.65569 c -0.40213,-2.01063 -1.86503,-4.38267 -3.2509,-5.2712 -2.72073,-1.74439 -62.5608,-19.92557 -92.50497,-28.10576 -21.2165,-5.79595 -17.49968,-6.49283 -36.39105,6.82315 -17.47867,12.32021 -21.76779,17.18514 -16.5298,18.74894 9.87195,2.94726 86.63186,25.17722 90.09945,26.09313 2.46132,0.65013 4.47514,1.91134 4.47514,2.80269 0,0.89135 -2.01382,2.63778 -4.47514,3.88095 -7.5893,3.83322 -67.06275,26.43592 -69.24588,26.31668 -1.13188,-0.0618 -27.27996,-9.70977 -58.10681,-21.43989 z"
     id="path637"
     transform="scale(0.75)" />
  <path
     style="fill:#ffb380;stroke-width:1.19337"
     d="m 161.23265,316.74217 c -0.3984,-1.03821 -0.72436,-17.97108 -0.72436,-37.62861 0,-29.84071 0.28086,-35.84873 1.70135,-36.39383 0.93575,-0.35908 19.92733,6.59732 42.20352,15.45865 l 40.50216,16.11152 25.52024,-9.87379 c 35.00586,-13.54378 47.49726,-17.88626 48.51882,-16.867 1.30546,1.30251 1.69116,66.62322 0.40497,68.583 -0.92848,1.41472 -3.89097,1.08364 -18.8163,-2.1028 -27.41677,-5.85327 -34.82127,-6.6245 -63.65907,-6.63054 -29.44817,-0.006 -38.4148,1.11307 -60.86188,7.59688 -14.68936,4.24301 -13.86865,4.14609 -14.78945,1.74652 z"
     id="path676"
     transform="scale(0.75)" />
  <path
     style="fill:#ffb380;stroke-width:1.19337"
     d="M 230.33882,663.21547 C 214.83039,647.24879 160.20731,570.73491 121.50297,510.76243 55.61244,408.66485 17.624988,330.71376 4.6097857,270.89503 1.5903143,257.01734 1.5889027,221.58328 4.6071711,205.25967 14.666554,150.85581 36.241918,108.92485 73.053886,72.235884 106.69803,38.70416 150.45875,14.759156 193.92265,6.0988737 c 37.63016,-7.4978953 81.26742,-5.92995182 116.0176,4.1686633 86.00349,24.993139 150.7093,94.693223 169.38767,182.461743 2.52103,11.84617 2.79362,16.15466 2.79362,44.1547 0,30.29783 -0.0804,31.33638 -3.41825,44.15469 -18.76993,72.08179 -71.26611,169.34118 -161.67583,299.53591 -35.25463,50.76851 -60.42684,84.00889 -66.42568,87.71638 -2.12073,1.31069 -5.91746,2.38307 -8.43716,2.38307 -4.05139,0 -5.41924,-0.86271 -11.8258,-7.45856 z M 267.9429,430.77636 c 41.52163,-5.02428 79.11148,-24.06475 109.85918,-55.64719 24.50616,-25.17147 39.50471,-50.99838 48.07613,-82.7852 4.11961,-15.27745 5.5251,-28.01941 5.5251,-50.08983 0,-30.24721 -2.8122,-45.07521 -13.61636,-71.79549 -9.7127,-24.02089 -24.3056,-45.06991 -44.67083,-64.43388 -20.26754,-19.271079 -43.93508,-33.574077 -69.73345,-42.142001 -20.60134,-6.841933 -27.61681,-7.794372 -57.41175,-7.794372 -29.26231,0 -40.04868,1.061722 -55.10084,5.423665 C 128.07633,79.708978 77.218873,132.90362 60.823873,197.53462 c -8.204728,32.344 -6.71563,74.06365 3.768512,105.5814 3.471986,10.43759 13.26036,31.4044 18.663717,39.9779 29.347728,46.56601 77.687278,78.8212 130.402818,87.013 12.92383,2.00831 40.41731,2.34737 54.28398,0.66944 z"
     id="path715"
     transform="scale(0.75)" />
  <path
     style="fill:#ffb380;stroke-width:1.19337"
     d="m 341.17049,330.0496 c -0.36034,-0.93902 -0.4675,-11.5451 -0.23814,-23.56906 0.39557,-20.73739 0.58463,-22.24351 3.67604,-29.28436 3.2337,-7.36496 3.25901,-7.63142 3.25901,-34.30939 0,-24.9304 -0.16687,-27.05366 -2.29328,-29.18008 -2.51263,-2.51262 -16.75837,-7.33393 -60.35865,-20.4277 -15.75249,-4.73069 -29.10535,-9.02628 -29.67303,-9.54576 -0.56769,-0.51948 0.62384,-1.80085 2.64782,-2.8475 3.56896,-1.84558 4.31705,-1.70228 24.79733,4.75005 44.75388,14.09975 68.77112,21.92402 69.48311,22.63601 0.40742,0.40742 1.12383,15.33558 1.59203,33.1737 0.63504,24.19523 1.33805,34.10003 2.76784,38.99648 4.4581,15.26723 6.57476,25.0091 7.29748,33.58648 1.05426,12.51227 0.28221,14.94369 -5.23128,16.47488 -6.7321,1.86962 -16.93494,1.60845 -17.72628,-0.45375 z"
     id="path754"
     transform="scale(0.75)" />
  <path
     style="fill:#000000;stroke-width:1.19337"
     d="M 208.24309,237.07025 C 128.246,206.85426 94.872928,193.66821 94.872928,192.27651 c 0,-1.26762 52.870782,-21.60006 120.121362,-46.19491 l 28.26156,-10.3358 7.85274,2.70517 c 35.56929,12.2532 140.47461,52.00602 141.46359,53.60622 0.32941,0.53299 -3.01597,2.57672 -7.43415,4.54163 -12.77697,5.68234 -12.70793,5.67759 -14.40298,0.99 -1.34339,-3.71506 -2.34289,-4.3827 -10.68314,-7.13609 -15.59646,-5.14891 -75.28519,-22.81247 -89.35805,-26.44354 -12.97775,-3.34852 -13.44117,-3.3851 -17.62263,-1.3911 -4.93924,2.35536 -24.74471,16.34226 -29.61267,20.91288 -3.74161,3.51307 -4.25865,7.10524 -1.19337,8.29111 1.14862,0.44437 22.45369,6.73746 47.34461,13.98464 24.89092,7.24719 45.45236,13.77537 45.69208,14.50709 0.23973,0.7317 -2.40402,2.67406 -5.875,4.31634 -9.94212,4.70407 -60.58208,23.74542 -64.6751,24.31876 -2.6559,0.37203 -12.89441,-2.95922 -36.50869,-11.87866 z"
     id="path1139"
     transform="scale(0.75)" />
  <path
     style="fill:#000000;stroke-width:1.19337"
     d="m 161.54367,298.64088 c -0.19911,-23.68703 0.27049,-54.45219 0.84035,-55.05506 0.59967,-0.63439 10.14308,2.91036 48.81856,18.1329 l 33.39042,13.14235 8.37753,-3.07884 c 4.60765,-1.69336 20.63351,-7.72992 35.61303,-13.41459 14.97952,-5.68466 28.00217,-10.04155 28.93923,-9.68197 1.41999,0.54491 1.70373,6.22483 1.70373,34.1056 0,31.7128 -0.1144,33.45182 -2.20055,33.45182 -1.21031,0 -10.0417,-1.58813 -19.62531,-3.52917 -22.32961,-4.5226 -37.21746,-6.01779 -59.92,-6.01779 -24.73565,0 -39.41627,1.69019 -57.33396,6.60088 -8.30701,2.2767 -15.85547,4.13945 -16.77435,4.13945 -1.35461,0 -1.70058,-3.55604 -1.82868,-18.79558 z"
     id="path1178"
     transform="scale(0.75)" />
  <path
     style="fill:#000000;stroke-width:1.19337"
     d="m 345.18232,330.82408 -3.28177,-0.41907 0.0252,-21.69975 c 0.0232,-20.00468 0.25585,-22.35227 2.97823,-30.05333 2.81221,-7.95518 2.9533,-9.65816 2.95825,-35.70714 0.005,-23.9337 -0.24515,-27.63018 -1.99724,-29.56622 -1.87971,-2.07706 -19.2991,-8.0031 -70.00009,-23.8139 -17.8692,-5.57241 -19.8487,-6.44404 -17.90055,-7.88209 1.31211,-0.96855 3.64339,-1.34838 5.81415,-0.94728 7.48101,1.38226 85.68575,26.80714 87.10391,28.31805 1.03065,1.09806 1.88158,11.53581 2.80397,34.39416 1.24134,30.76242 1.55672,33.67716 5.03586,46.54144 2.38852,8.83169 3.93512,17.82575 4.33867,25.2311 0.60724,11.14287 0.5372,11.56369 -2.21136,13.28605 -3.05457,1.91412 -10.36274,2.99538 -15.6672,2.31798 z"
     id="path1217"
     transform="scale(0.75)" />
  <path
     style="fill:#ffe6d5;stroke-width:1.19337"
     d="M 222.56353,429.64094 C 202.97475,427.70429 174.19152,418.62065 155.73481,408.55058 133.75038,396.55578 109.40572,375.87964 95.477775,357.37374 58.587375,308.35789 47.256271,245.072 65.258705,188.59578 86.288078,122.62363 140.58032,73.243214 207.04972,59.632641 c 11.34053,-2.322136 15.25008,-2.514574 41.17127,-2.026556 31.87928,0.600191 39.21931,1.882054 62.65194,10.941532 32.70407,12.643989 64.40957,37.378413 85.0253,66.330823 14.37095,20.18234 26.11486,47.267 31.5522,72.76797 3.29137,15.43652 2.99581,57.1196 -0.51618,72.79558 -7.93152,35.40278 -23.77991,65.56511 -47.63001,90.64844 -28.42029,29.88984 -63.35485,49.36597 -101.52949,56.60298 -11.99025,2.27307 -41.41868,3.31114 -55.21122,1.94753 z M 363.65188,329.33225 c 3.85363,-4.75904 1.81952,-25.7255 -4.4005,-45.35792 -3.0275,-9.55576 -3.24447,-11.8647 -4.05559,-43.15851 -0.47132,-18.18444 -1.11912,-33.32479 -1.43954,-33.64521 -0.54008,-0.54007 -76.69217,-25.0255 -87.83327,-28.24131 -4.48391,-1.29425 -5.39188,-1.17567 -9.24862,1.20792 -2.35211,1.45369 -4.27657,3.0592 -4.27657,3.56781 0,0.50859 11.94862,4.54748 26.55248,8.97529 45.59559,13.82432 66.2502,20.86822 67.01194,22.85327 0.3915,1.02024 0.70657,13.75968 0.70016,28.30987 -0.0119,26.26503 -0.0346,26.50198 -3.21457,33.01842 -3.07003,6.29123 -3.22266,7.51838 -3.67893,29.57886 -0.36968,17.87424 -0.12398,23.43951 1.09999,24.9143 1.292,1.55676 3.29618,1.78107 11.12148,1.24472 7.91518,-0.54252 9.90687,-1.10059 11.66154,-3.26751 z M 178.05764,315.74558 c 21.77197,-6.14772 30.24758,-7.18483 58.82634,-7.19816 27.74911,-0.013 38.12108,1.07081 62.9415,6.57673 19.06592,4.22941 20.11116,4.27019 21.03561,0.8206 0.94917,-3.54179 0.93732,-59.88111 -0.0138,-65.63536 -0.55119,-3.33466 -1.31538,-4.47514 -2.99865,-4.47514 -2.12076,0 -24.09835,8.00159 -58.26838,21.21431 l -14.89486,5.75947 -39.77707,-15.87362 c -21.87734,-8.73051 -40.75974,-15.87364 -41.96084,-15.87364 -1.20109,0 -2.50977,0.84944 -2.90817,1.88766 -0.94084,2.45178 -0.91527,70.67062 0.0278,74.18969 0.39577,1.4768 1.35637,2.68508 2.13467,2.68508 0.77831,0 7.91346,-1.83494 15.85589,-4.07762 z m 97.01418,-75.15017 c 43.59356,-16.69605 46.38483,-18.10971 42.80418,-21.67846 -0.89809,-0.89511 -22.76628,-7.79076 -48.59594,-15.32365 -25.82967,-7.53289 -47.31033,-14.04875 -47.7348,-14.47968 -1.10699,-1.12381 6.77168,-7.55395 22.06209,-18.00589 l 13.2869,-9.08242 21.91752,6.21092 c 25.05038,7.09869 82.42187,24.28552 87.10555,26.09429 2.28468,0.8823 3.3493,2.36391 3.93252,5.47281 0.43986,2.34462 0.95985,4.26297 1.15553,4.26297 0.19569,0 3.27127,-1.00308 6.83463,-2.22905 8.73349,-3.00476 18.95558,-8.27186 18.95558,-9.76716 0,-0.66862 -2.55083,-2.31316 -5.66851,-3.65451 -7.74935,-3.3341 -115.58815,-43.65797 -133.43784,-49.89606 l -14.39918,-5.03221 -19.61187,7.11582 c -34.51594,12.5235 -125.473827,46.82329 -128.989616,48.64138 -8.0376,4.1564 -12.98005,1.99476 119.521376,52.27396 14.76796,5.60387 27.92487,10.20818 29.23757,10.2318 1.31271,0.0236 15.54365,-4.99607 31.62431,-11.15486 z"
     id="path1256"
     transform="scale(0.75)" />
  <path
     style="fill:#ff8080;stroke-width:1.19337"
     d="M 230.31684,663.21547 C 222.62219,655.31741 196.7116,621.14037 175.80699,591.31491 82.897521,458.75718 26.102279,355.14636 8.3228591,285.77581 2.7326593,263.96434 1.347157,251.89194 2.1638967,232.1105 4.6467923,171.97471 29.58757,115.64558 72.914917,72.318232 101.28595,43.947196 138.04745,21.672303 174.27506,10.901088 215.81044,-1.4482377 268.37067,-1.7462984 309.64407,10.133432 395.30342,34.788778 460.29294,104.52735 479.3173,192.20539 c 2.41706,11.13954 2.7084,15.80354 2.75365,44.0819 0.0496,31.0347 -0.0131,31.86905 -3.36766,44.75138 -20.01769,76.87353 -81.83544,188.42681 -181.86061,328.1768 -38.9709,54.44809 -45.17806,61.45856 -54.41629,61.45856 -4.37015,0 -5.55262,-0.7283 -12.10955,-7.45856 z m 51.65482,-234.6314 c 37.0709,-7.96598 65.91839,-23.92398 94.01513,-52.00777 27.99604,-27.98313 44.5983,-57.96865 52.5665,-94.94094 2.74606,-12.74159 3.20208,-61.21856 0.70025,-74.43912 -4.19261,-22.15533 -16.54266,-51.22562 -30.4757,-71.7355 C 389.88397,122.36864 366.5348,98.724646 353.08483,89.190743 335.28576,76.57402 311.8362,65.631774 289.39226,59.469949 c -9.56282,-2.625406 -12.15944,-2.784866 -45.34806,-2.784866 -33.25349,0 -35.79922,0.157122 -45.93758,2.835264 -35.01484,9.249494 -60.242,23.800401 -85.97775,49.591583 -32.516884,32.58692 -50.031532,67.97162 -55.512851,112.15218 -1.966105,15.84722 -0.793707,45.38333 2.401838,60.50932 16.478393,77.99987 80.688213,138.26356 158.772193,149.01457 13.2853,1.8292 51.52335,0.51613 64.18161,-2.20393 z"
     id="path1443"
     transform="scale(0.75)" />
  <path
     style="fill:#ff5555;stroke-width:1.19337"
     d="M 238.62533,669.53582 C 230.30126,666.16262 188.49482,610.52573 142.35844,541.4218 64.212074,424.37275 18.402632,334.21759 6.0332586,273.12737 0.81238169,247.34235 2.1121993,214.56744 9.5293909,184.97237 27.118356,114.79128 75.065565,56.559447 141.65152,24.510192 177.39088,7.3080675 206.06124,1.591981 251.02038,2.7050278 c 29.29355,0.725216 44.32287,3.1673255 67.95694,11.0422952 79.14192,26.370421 137.03727,89.516637 158.62819,173.015107 2.8747,11.1173 3.1217,14.22617 3.61058,45.4441 0.51113,32.63817 0.44658,33.83406 -2.47965,45.94475 -6.85461,28.3689 -20.53454,62.95407 -41.50063,104.92054 -33.09215,66.23844 -76.718,136.01963 -143.35764,229.3059 -27.96401,39.14574 -38.97768,52.67607 -45.4147,55.79219 -5.65556,2.7378 -6.24928,2.82023 -9.83814,1.36591 z M 268.08351,430.7435 c 28.61003,-2.90879 57.50488,-14.04704 82.61458,-31.84585 12.88394,-9.13268 38.92418,-35.31921 48.10745,-48.37771 13.49047,-19.18331 23.31165,-40.98232 29.23963,-64.90016 2.36269,-9.53283 2.61926,-13.70632 2.66582,-43.36564 0.0573,-36.47081 -0.50832,-40.24083 -9.55187,-63.66867 -9.71733,-25.17336 -21.3102,-44.3808 -37.15484,-61.5594 C 358.17572,89.023015 329.78302,71.229571 292.97237,59.97722 283.34416,57.034045 281.1685,56.850639 250.155,56.367731 c -21.42222,-0.333563 -35.97341,-0.02628 -42.25587,0.892338 -21.23388,3.104803 -50.48716,15.347852 -70.39383,29.461139 -13.3635,9.474354 -39.045924,35.412732 -48.836295,49.322992 -15.540642,22.08031 -26.321293,48.42515 -31.009759,75.779 -2.124153,12.39293 -2.362388,17.45266 -1.769967,37.59116 0.747996,25.42707 2.105676,33.84179 8.63035,53.48966 19.986653,60.18621 70.216241,107.58684 131.211201,123.82129 6.07404,1.61667 14.19347,3.39935 18.04318,3.96153 10.15534,1.48296 39.97486,1.51407 54.3095,0.0567 z"
     id="path1741"
     transform="scale(0.75)" />
  <path
     style="fill:#ffd5d5;stroke-width:1.19337"
     d="M 213.01657,427.85023 C 190.34301,423.51077 163.61659,413.3335 147.36598,402.85087 102.14956,373.68351 73.756172,334.00318 61.910723,283.42541 c -3.12401,-13.33892 -3.355018,-16.07901 -3.370404,-39.9779 -0.01787,-27.76338 1.33782,-37.23995 8.311146,-58.09655 C 85.502763,129.56657 131.32372,83.751885 186.49655,65.722244 c 19.48351,-6.366915 26.9022,-7.349909 55.07325,-7.297341 30.38705,0.0567 41.63393,1.264942 56.25737,6.04366 30.88111,10.091477 54.58067,24.731201 78.13485,48.265577 23.91878,23.89865 39.67208,52.20005 49.72191,89.32727 2.38206,8.80004 2.647,12.64233 2.68918,38.99936 0.0516,32.2238 -0.64671,37.83658 -7.27466,58.47514 -20.21254,62.93919 -76.34215,113.67155 -140.65646,127.13135 -13.39705,2.80375 -55.1311,3.53598 -67.42542,1.18297 z m 150.61817,-98.48017 c 2.19557,-2.69638 2.36674,-4.13114 1.77977,-14.91702 -0.40034,-7.3565 -1.88821,-16.51091 -3.87917,-23.86741 -4.69044,-17.331 -4.96527,-19.74767 -5.92184,-52.071 -0.47847,-16.16832 -1.27784,-30.05693 -1.77636,-30.86356 -0.95657,-1.54775 -82.19431,-28.16632 -89.72227,-29.39863 -3.39106,-0.55511 -5.22886,-0.12431 -8.05525,1.88827 -2.014,1.43409 -3.66183,3.03749 -3.66183,3.5631 0,0.52561 7.11547,3.20466 15.81215,5.95344 35.48035,11.21434 74.38796,24.03655 75.93095,25.02344 1.3104,0.83814 1.67202,6.58295 1.78355,28.33446 0.13637,26.59404 0.0667,27.43391 -2.75758,33.25004 -2.68294,5.52504 -2.93381,7.62852 -3.38811,28.40838 -0.26984,12.34285 -0.14752,23.80857 0.27183,25.47941 0.75342,3.00186 0.88329,3.0329 10.9587,2.61912 9.17296,-0.37671 10.44005,-0.71813 12.62546,-3.40204 z M 180.3063,315.68301 c 21.0857,-5.45185 31.20767,-6.6048 57.73974,-6.57684 23.80397,0.0251 38.6722,1.59342 61.90231,6.52958 8.10308,1.72183 16.15833,2.96562 17.90055,2.764 l 3.16767,-0.3666 0.34631,-32.221 c 0.40241,-37.44273 0.15245,-39.9779 -3.94176,-39.9779 -1.58984,0 -18.6536,5.92745 -37.91946,13.1721 l -35.02884,13.1721 -34.52371,-13.64236 c -18.98803,-7.50329 -37.2502,-14.59785 -40.5826,-15.76567 -10.61937,-3.72153 -10.05159,-5.83611 -10.05159,37.43522 0,20.91452 0.35801,38.38442 0.79558,38.82198 1.32727,1.32728 3.55114,0.95898 20.1958,-3.34461 z m 90.32132,-72.97757 c 29.22166,-11.01273 44.82414,-17.64576 47.27714,-20.09877 3.84642,-3.84639 0.78863,-4.99202 -65.50697,-24.54263 -16.08066,-4.74219 -29.50608,-8.87593 -29.83426,-9.18608 -0.96583,-0.91276 7.71512,-7.94717 21.57005,-17.4788 l 12.92692,-8.89318 24.81782,7.13634 c 33.06689,9.50835 74.90211,22.08175 81.25823,24.42179 4.11337,1.51438 5.26622,2.59067 5.83819,5.45047 0.39198,1.95992 1.36021,3.81196 2.15161,4.11565 3.17548,1.21855 25.66923,-8.92078 25.66923,-11.57072 0,-1.99598 -8.87387,-5.61462 -68.04172,-27.74646 -64.52282,-24.13488 -82.74392,-30.65559 -85.66222,-30.65559 -2.14757,0 -11.61059,3.43583 -79.00324,28.68444 -67.24412,25.19296 -72.795583,27.42749 -72.795583,29.30096 0,0.90681 3.087845,3.19685 6.861879,5.08897 14.348854,7.19386 140.194404,54.9315 145.025404,55.01323 1.82198,0.0308 14.17336,-4.037 27.44752,-9.03962 z"
     id="path1891"
     transform="scale(0.75)" />
  <path
     style="fill:#ff5555;stroke-width:1.19337"
     d="M 230.8561,661.31548 C 203.80586,633.1712 120.95625,511.90657 79.076696,439.16022 21.005631,338.28862 -0.42226631,276.30654 4.1714475,222.49017 11.796402,133.16213 68.03424,56.588058 152.69234,20.262465 184.15717,6.7613527 198.64334,4.1767956 242.85083,4.1767956 c 39.33769,0 47.60103,1.0843461 73.98895,9.7091064 38.51461,12.588312 70.88059,32.799621 98.49384,61.505616 29.78241,30.961012 49.35511,66.232752 61.72397,111.232062 2.49999,9.09526 2.66276,12.05052 2.66977,48.47034 l 0.007,38.78453 -4.01347,13.72376 c -22.07786,75.49351 -78.9998,178.19133 -170.65276,307.8895 -34.83171,49.29036 -47.25632,65.15161 -55.38715,70.70718 -7.46095,5.09786 -9.82028,4.48583 -18.82533,-4.88341 z m 52.5465,-232.28115 c 23.21664,-5.25529 43.83983,-14.04204 63.34787,-26.9901 15.33878,-10.1808 44.32469,-39.18358 54.66528,-54.69708 14.41464,-21.62564 25.97429,-50.57703 28.86373,-72.28982 2.04022,-15.33139 0.85178,-66.69873 -1.7667,-76.3612 -2.91248,-10.74729 -9.89185,-28.44105 -16.24245,-41.17702 C 390.11785,113.09282 349.89811,78.869206 299.64861,61.68749 l -14.43314,-4.935098 -35.80111,-0.455149 c -24.85452,-0.315982 -38.35531,-0.0074 -44.15469,1.009059 -19.19475,3.364433 -45.86111,14.478185 -64.93625,27.063515 -14.71734,9.710157 -43.679494,38.989153 -54.11734,54.709383 -14.118209,21.26316 -23.420548,44.01973 -28.27317,69.16544 -2.809997,14.56108 -3.360621,46.10454 -1.124878,64.44044 1.970186,16.15798 8.383181,35.97527 17.764367,54.89503 25.958311,52.35211 73.344361,89.26327 131.031511,102.06644 9.10388,2.02053 14.03023,2.25147 39.63366,1.85796 21.82022,-0.33537 31.50239,-0.96204 38.16503,-2.47018 z"
     id="path2337"
     transform="scale(0.75)" />
</svg>
